<?xml version="1.0" standalone="no"?>
<!DOCTYPE svg PUBLIC "-//W3C//DTD SVG 20010904//EN"
 "http://www.w3.org/TR/2001/REC-SVG-20010904/DTD/svg10.dtd">
<svg version="1.0" xmlns="http://www.w3.org/2000/svg"
 width="771.000000pt" height="765.000000pt" viewBox="0 0 771.000000 765.000000"
 preserveAspectRatio="xMidYMid meet">

<g transform="translate(0.000000,765.000000) scale(0.100000,-0.100000)"
fill="#000000" stroke="none">
<path d="M3900 4254 c-78 -34 -103 -82 -119 -224 -7 -58 -21 -155 -31 -216
-21 -120 -27 -204 -16 -222 4 -7 18 -12 31 -12 35 0 50 37 68 159 9 56 18 105
20 108 3 2 31 -30 62 -72 56 -74 126 -135 192 -169 47 -24 71 -21 79 9 8 31
-14 59 -66 85 -67 34 -178 178 -164 213 3 8 22 27 43 40 44 29 69 76 81 150
10 69 -5 115 -49 144 -39 26 -81 29 -131 7z m88 -102 c6 -42 -18 -92 -59 -119
-32 -21 -42 -23 -54 -13 -29 24 -18 67 29 116 48 49 79 55 84 16z"/>
<path d="M3371 4124 c-18 -15 -35 -42 -42 -67 -20 -73 -47 -239 -55 -329 -6
-84 -6 -87 19 -112 20 -20 31 -24 49 -17 25 9 34 31 43 102 l6 45 62 -4 c83
-5 83 -5 92 -48 15 -80 52 -117 93 -95 32 17 33 39 7 146 -84 342 -173 465
-274 379z m103 -179 c36 -91 35 -97 -16 -93 -41 3 -43 5 -46 37 -4 38 16 121
28 121 4 0 20 -29 34 -65z"/>
<path d="M4306 4118 c-27 -28 -36 -49 -54 -133 -33 -157 -48 -317 -33 -353 15
-36 33 -45 66 -32 25 10 30 21 40 101 l6 45 62 -4 c83 -5 83 -5 92 -48 15 -80
52 -117 93 -95 11 6 23 18 26 27 13 33 -60 295 -112 402 -59 123 -123 154
-186 90z m107 -173 c38 -89 37 -97 -15 -93 -41 3 -43 5 -46 37 -4 36 16 121
27 121 3 0 18 -29 34 -65z"/>
<path d="M4790 4137 c-14 -6 -35 -32 -47 -57 -24 -49 -58 -225 -68 -357 -7
-78 -6 -83 18 -107 17 -17 32 -23 46 -19 28 7 37 26 45 94 l7 57 62 -5 c84 -6
84 -6 91 -48 10 -53 25 -81 51 -95 27 -14 60 -1 69 28 13 39 -71 330 -120 419
-53 95 -95 120 -154 90z m107 -260 c6 -28 5 -28 -38 -25 -44 3 -44 3 -47 43
-2 22 5 58 14 80 l17 40 24 -54 c13 -30 27 -68 30 -84z"/>
<path d="M2865 4121 c-86 -40 -127 -111 -127 -222 0 -95 32 -162 99 -212 68
-50 112 -67 172 -67 28 0 62 -7 79 -17 62 -36 123 26 76 78 -16 18 -16 21 2
61 30 67 26 159 -10 231 -73 143 -182 199 -291 148z m142 -123 c39 -40 72
-112 73 -155 0 -38 -12 -48 -38 -32 -31 20 -72 3 -79 -31 -6 -35 -4 -34 -48
-16 -45 19 -65 61 -65 138 0 68 16 103 54 118 42 17 71 11 103 -22z"/>
<path d="M4210 3553 c-8 -2 -22 -7 -30 -10 -8 -3 -19 -7 -25 -8 -5 -2 -47 -14
-93 -29 -46 -14 -94 -26 -106 -26 -27 0 -40 -22 -23 -39 8 -8 8 -11 -2 -11 -9
0 -11 -8 -6 -27 4 -16 8 -29 10 -31 4 -4 48 20 56 31 3 5 10 9 15 10 5 1 9 7
9 12 0 16 53 70 61 63 3 -4 15 2 27 13 11 10 34 19 49 19 29 0 98 24 98 34 0
7 -19 6 -40 -1z"/>
<path d="M4297 3531 c-4 -15 0 -21 12 -21 9 0 22 5 28 11 6 6 17 8 23 4 16
-10 -48 -38 -67 -30 -8 2 -11 0 -8 -5 4 -6 -9 -10 -32 -9 -21 1 -58 -2 -83 -6
-25 -4 -51 -7 -57 -8 -7 0 -13 -4 -13 -9 0 -5 -4 -6 -10 -3 -5 3 -10 2 -10 -4
0 -5 -9 -13 -20 -16 -11 -3 -20 -15 -20 -26 0 -10 -5 -18 -11 -16 -6 1 -14 -4
-16 -11 -3 -7 -1 -12 4 -11 20 4 25 -2 13 -16 -11 -13 -11 -18 0 -28 8 -8 14
-9 16 -1 3 6 19 9 37 7 22 -3 28 -1 18 5 -10 7 -10 14 -2 30 15 27 41 36 41
14 0 -10 5 -23 12 -30 9 -9 8 -12 -4 -12 -8 0 -21 -6 -27 -14 -7 -8 -21 -12
-31 -9 -24 6 -26 -3 -4 -24 14 -14 16 -14 29 3 14 18 14 18 15 -4 0 -13 6 -22
13 -21 6 1 20 -1 29 -5 10 -5 35 -6 55 -3 44 6 113 24 97 26 -6 1 -11 7 -11
14 0 9 9 12 26 9 22 -4 24 -3 14 9 -10 12 -8 15 7 15 10 0 17 -3 14 -7 -2 -4
8 -9 22 -12 18 -3 24 -1 20 9 -3 8 0 11 8 8 10 -4 16 15 23 73 12 97 4 119
-46 126 -20 3 -50 8 -67 12 -26 6 -32 4 -37 -14z m-87 -75 c0 -2 -11 -6 -25
-8 -14 -3 -25 -1 -25 3 0 5 11 9 25 9 14 0 25 -2 25 -4z m-76 -21 c-10 -8 -23
-14 -29 -14 -5 0 -1 6 9 14 11 8 24 15 30 15 5 0 1 -7 -10 -15z m-59 -35 c-3
-5 -12 -10 -18 -10 -7 0 -6 4 3 10 19 12 23 12 15 0z"/>
<path d="M3466 3468 l-58 -30 5 -41 c3 -23 9 -73 13 -111 l7 -69 81 6 c74 5
146 28 146 46 0 3 14 12 31 18 26 10 31 16 27 37 -4 21 -1 25 16 23 18 -2 21
3 19 28 -1 16 -7 31 -13 33 -5 2 -8 8 -5 12 3 5 -4 14 -15 20 -11 6 -18 15
-16 19 9 15 -38 29 -109 34 -63 4 -76 1 -129 -25z m162 -25 c23 -9 42 -22 42
-29 0 -8 5 -14 12 -14 6 0 9 -3 6 -6 -4 -3 -17 0 -30 7 -25 14 -158 20 -158 7
0 -17 -15 -7 -26 16 -11 23 -9 25 25 34 40 10 66 7 129 -15z m-158 -23 c0 -5
-4 -10 -10 -10 -5 0 -10 5 -10 10 0 6 5 10 10 10 6 0 10 -4 10 -10z m133 -27
c-13 -2 -33 -2 -45 0 -13 2 -3 4 22 4 25 0 35 -2 23 -4z m-53 -70 c0 -19 -19
-55 -20 -38 0 6 -3 20 -6 33 -5 16 -2 22 10 22 9 0 16 -8 16 -17z m95 -43 c-3
-5 -16 -10 -28 -9 -21 0 -21 1 -2 9 28 12 37 12 30 0z"/>
<path d="M4385 3300 c3 -5 8 -10 11 -10 2 0 4 5 4 10 0 6 -5 10 -11 10 -5 0
-7 -4 -4 -10z"/>
</g>
</svg>
